<svg xmlns="http://www.w3.org/2000/svg" viewBox="0 0 1440 320"><path fill="#2c3e50" fill-opacity="1" stroke="#507192" stroke-width="2px" d="M0,192L30,202.7C60,213,120,235,180,229.3C240,224,300,192,360,197.3C420,203,480,245,540,250.7C600,256,660,224,720,192C780,160,840,128,900,149.3C960,171,1020,245,1080,245.3C1140,245,1200,171,1260,138.7C1320,107,1380,117,1410,122.7L1440,128L1440,320L1410,320C1380,320,1320,320,1260,320C1200,320,1140,320,1080,320C1020,320,960,320,900,320C840,320,780,320,720,320C660,320,600,320,540,320C480,320,420,320,360,320C300,320,240,320,180,320C120,320,60,320,30,320L0,320Z">></path></svg>